<mxfile host="app.diagrams.net" modified="2023-06-14T11:04:20.249Z" agent="Mozilla/5.0 (X11; Ubuntu; Linux x86_64; rv:109.0) Gecko/20100101 Firefox/114.0" etag="W4LoE5NRyvEZcg7gjAw7" version="21.3.8" type="github">
  <diagram name="Page-1" id="dzSScwYg1bDkqWowjRY6">
    <mxGraphModel dx="1360" dy="915" grid="1" gridSize="10" guides="1" tooltips="1" connect="1" arrows="1" fold="1" page="1" pageScale="1" pageWidth="850" pageHeight="1100" math="0" shadow="0">
      <root>
        <mxCell id="0" />
        <mxCell id="1" parent="0" />
        <mxCell id="tRwjkaypRiieognHgRcq-1" value="&lt;font color=&quot;#000000&quot;&gt;public&lt;/font&gt;" style="rounded=1;whiteSpace=wrap;html=1;fillColor=#1ba1e2;fontColor=#ffffff;strokeColor=#006EAF;" parent="1" vertex="1">
          <mxGeometry x="160" y="281" width="80" height="40" as="geometry" />
        </mxCell>
        <mxCell id="tRwjkaypRiieognHgRcq-2" value="" style="endArrow=classic;html=1;rounded=0;exitX=0.5;exitY=1;exitDx=0;exitDy=0;" parent="1" source="tRwjkaypRiieognHgRcq-1" edge="1">
          <mxGeometry width="50" height="50" relative="1" as="geometry">
            <mxPoint x="310" y="511" as="sourcePoint" />
            <mxPoint x="280" y="341" as="targetPoint" />
            <Array as="points">
              <mxPoint x="200" y="341" />
            </Array>
          </mxGeometry>
        </mxCell>
        <mxCell id="tRwjkaypRiieognHgRcq-3" value="&lt;div&gt;index.html&lt;/div&gt;" style="text;html=1;strokeColor=none;fillColor=none;align=center;verticalAlign=middle;whiteSpace=wrap;rounded=0;" parent="1" vertex="1">
          <mxGeometry x="281" y="327" width="60" height="30" as="geometry" />
        </mxCell>
        <mxCell id="tRwjkaypRiieognHgRcq-5" value="mpc_simulator.mjs" style="text;html=1;strokeColor=none;fillColor=none;align=center;verticalAlign=middle;whiteSpace=wrap;rounded=0;" parent="1" vertex="1">
          <mxGeometry x="281" y="824" width="111" height="30" as="geometry" />
        </mxCell>
        <mxCell id="tRwjkaypRiieognHgRcq-6" style="edgeStyle=orthogonalEdgeStyle;rounded=0;orthogonalLoop=1;jettySize=auto;html=1;exitX=0.5;exitY=1;exitDx=0;exitDy=0;entryX=0;entryY=0.5;entryDx=0;entryDy=0;" parent="1" source="tRwjkaypRiieognHgRcq-10" target="tRwjkaypRiieognHgRcq-1" edge="1">
          <mxGeometry relative="1" as="geometry" />
        </mxCell>
        <mxCell id="tRwjkaypRiieognHgRcq-8" style="edgeStyle=orthogonalEdgeStyle;rounded=0;orthogonalLoop=1;jettySize=auto;html=1;exitX=0.5;exitY=1;exitDx=0;exitDy=0;entryX=0;entryY=0.5;entryDx=0;entryDy=0;" parent="1" source="tRwjkaypRiieognHgRcq-10" target="tRwjkaypRiieognHgRcq-14" edge="1">
          <mxGeometry relative="1" as="geometry" />
        </mxCell>
        <mxCell id="tRwjkaypRiieognHgRcq-34" style="edgeStyle=orthogonalEdgeStyle;rounded=0;orthogonalLoop=1;jettySize=auto;html=1;exitX=0.5;exitY=1;exitDx=0;exitDy=0;entryX=0;entryY=0.5;entryDx=0;entryDy=0;" parent="1" source="tRwjkaypRiieognHgRcq-10" target="tRwjkaypRiieognHgRcq-32" edge="1">
          <mxGeometry relative="1" as="geometry" />
        </mxCell>
        <mxCell id="tRwjkaypRiieognHgRcq-36" style="edgeStyle=orthogonalEdgeStyle;rounded=0;orthogonalLoop=1;jettySize=auto;html=1;exitX=0.5;exitY=1;exitDx=0;exitDy=0;entryX=0;entryY=0.5;entryDx=0;entryDy=0;" parent="1" source="tRwjkaypRiieognHgRcq-10" target="tRwjkaypRiieognHgRcq-35" edge="1">
          <mxGeometry relative="1" as="geometry" />
        </mxCell>
        <mxCell id="OaFxA5Hv5-MlWqyUZEpq-2" style="edgeStyle=orthogonalEdgeStyle;rounded=0;orthogonalLoop=1;jettySize=auto;html=1;exitX=0.5;exitY=1;exitDx=0;exitDy=0;entryX=0;entryY=0.5;entryDx=0;entryDy=0;" parent="1" source="tRwjkaypRiieognHgRcq-10" target="OaFxA5Hv5-MlWqyUZEpq-1" edge="1">
          <mxGeometry relative="1" as="geometry" />
        </mxCell>
        <mxCell id="tRwjkaypRiieognHgRcq-10" value="&lt;font color=&quot;#000000&quot;&gt;Web-application&lt;br&gt;&lt;/font&gt;" style="rounded=1;whiteSpace=wrap;html=1;fillColor=#e1d5e7;strokeColor=#9673a6;" parent="1" vertex="1">
          <mxGeometry x="40" y="80" width="120" height="60" as="geometry" />
        </mxCell>
        <mxCell id="tRwjkaypRiieognHgRcq-27" style="edgeStyle=orthogonalEdgeStyle;rounded=0;orthogonalLoop=1;jettySize=auto;html=1;exitX=0.5;exitY=1;exitDx=0;exitDy=0;entryX=0;entryY=0.5;entryDx=0;entryDy=0;" parent="1" source="tRwjkaypRiieognHgRcq-14" target="tRwjkaypRiieognHgRcq-23" edge="1">
          <mxGeometry relative="1" as="geometry" />
        </mxCell>
        <mxCell id="tRwjkaypRiieognHgRcq-28" style="edgeStyle=orthogonalEdgeStyle;rounded=0;orthogonalLoop=1;jettySize=auto;html=1;exitX=0.5;exitY=1;exitDx=0;exitDy=0;entryX=0;entryY=0.5;entryDx=0;entryDy=0;" parent="1" source="tRwjkaypRiieognHgRcq-14" target="tRwjkaypRiieognHgRcq-24" edge="1">
          <mxGeometry relative="1" as="geometry" />
        </mxCell>
        <mxCell id="tRwjkaypRiieognHgRcq-29" style="edgeStyle=orthogonalEdgeStyle;rounded=0;orthogonalLoop=1;jettySize=auto;html=1;exitX=0.5;exitY=1;exitDx=0;exitDy=0;entryX=0;entryY=0.5;entryDx=0;entryDy=0;" parent="1" source="tRwjkaypRiieognHgRcq-14" target="tRwjkaypRiieognHgRcq-25" edge="1">
          <mxGeometry relative="1" as="geometry" />
        </mxCell>
        <mxCell id="tRwjkaypRiieognHgRcq-30" style="edgeStyle=orthogonalEdgeStyle;rounded=0;orthogonalLoop=1;jettySize=auto;html=1;exitX=0.5;exitY=1;exitDx=0;exitDy=0;entryX=0;entryY=0.5;entryDx=0;entryDy=0;" parent="1" source="tRwjkaypRiieognHgRcq-14" target="tRwjkaypRiieognHgRcq-26" edge="1">
          <mxGeometry relative="1" as="geometry" />
        </mxCell>
        <mxCell id="tRwjkaypRiieognHgRcq-31" style="edgeStyle=orthogonalEdgeStyle;rounded=0;orthogonalLoop=1;jettySize=auto;html=1;exitX=0.5;exitY=1;exitDx=0;exitDy=0;entryX=0;entryY=0.5;entryDx=0;entryDy=0;" parent="1" source="tRwjkaypRiieognHgRcq-14" target="tRwjkaypRiieognHgRcq-5" edge="1">
          <mxGeometry relative="1" as="geometry" />
        </mxCell>
        <mxCell id="tRwjkaypRiieognHgRcq-14" value="&lt;font color=&quot;#000000&quot;&gt;src&lt;/font&gt;" style="rounded=1;whiteSpace=wrap;html=1;fillColor=#1ba1e2;fontColor=#ffffff;strokeColor=#006EAF;" parent="1" vertex="1">
          <mxGeometry x="160" y="361" width="80" height="40" as="geometry" />
        </mxCell>
        <mxCell id="tRwjkaypRiieognHgRcq-15" value="" style="endArrow=classic;html=1;rounded=0;exitX=0.5;exitY=1;exitDx=0;exitDy=0;" parent="1" source="tRwjkaypRiieognHgRcq-14" edge="1">
          <mxGeometry width="50" height="50" relative="1" as="geometry">
            <mxPoint x="310" y="591" as="sourcePoint" />
            <mxPoint x="280" y="421" as="targetPoint" />
            <Array as="points">
              <mxPoint x="200" y="421" />
            </Array>
          </mxGeometry>
        </mxCell>
        <mxCell id="OaFxA5Hv5-MlWqyUZEpq-6" style="edgeStyle=orthogonalEdgeStyle;rounded=0;orthogonalLoop=1;jettySize=auto;html=1;exitX=0.5;exitY=1;exitDx=0;exitDy=0;entryX=0;entryY=0.5;entryDx=0;entryDy=0;" parent="1" source="tRwjkaypRiieognHgRcq-22" target="OaFxA5Hv5-MlWqyUZEpq-3" edge="1">
          <mxGeometry relative="1" as="geometry" />
        </mxCell>
        <mxCell id="OaFxA5Hv5-MlWqyUZEpq-9" style="edgeStyle=orthogonalEdgeStyle;rounded=0;orthogonalLoop=1;jettySize=auto;html=1;exitX=0.5;exitY=1;exitDx=0;exitDy=0;entryX=0;entryY=0.5;entryDx=0;entryDy=0;" parent="1" source="tRwjkaypRiieognHgRcq-22" target="OaFxA5Hv5-MlWqyUZEpq-4" edge="1">
          <mxGeometry relative="1" as="geometry" />
        </mxCell>
        <mxCell id="OaFxA5Hv5-MlWqyUZEpq-10" style="edgeStyle=orthogonalEdgeStyle;rounded=0;orthogonalLoop=1;jettySize=auto;html=1;exitX=0.5;exitY=1;exitDx=0;exitDy=0;entryX=0;entryY=0.5;entryDx=0;entryDy=0;" parent="1" source="tRwjkaypRiieognHgRcq-22" target="OaFxA5Hv5-MlWqyUZEpq-5" edge="1">
          <mxGeometry relative="1" as="geometry" />
        </mxCell>
        <mxCell id="i9gKWZIL3JA77E3siz50-2" style="edgeStyle=orthogonalEdgeStyle;rounded=0;orthogonalLoop=1;jettySize=auto;html=1;exitX=0.5;exitY=1;exitDx=0;exitDy=0;entryX=0;entryY=0.5;entryDx=0;entryDy=0;" edge="1" parent="1" source="tRwjkaypRiieognHgRcq-22" target="i9gKWZIL3JA77E3siz50-1">
          <mxGeometry relative="1" as="geometry" />
        </mxCell>
        <mxCell id="tRwjkaypRiieognHgRcq-22" value="&lt;font color=&quot;#000000&quot;&gt;components&lt;br&gt;&lt;/font&gt;" style="rounded=1;whiteSpace=wrap;html=1;fillColor=#1ba1e2;fontColor=#ffffff;strokeColor=#006EAF;" parent="1" vertex="1">
          <mxGeometry x="279" y="401" width="80" height="40" as="geometry" />
        </mxCell>
        <mxCell id="tRwjkaypRiieognHgRcq-23" value="&lt;font color=&quot;#000000&quot;&gt;css&lt;/font&gt;" style="rounded=1;whiteSpace=wrap;html=1;fillColor=#1ba1e2;fontColor=#ffffff;strokeColor=#006EAF;" parent="1" vertex="1">
          <mxGeometry x="281" y="620" width="80" height="40" as="geometry" />
        </mxCell>
        <mxCell id="tRwjkaypRiieognHgRcq-24" value="&lt;font color=&quot;#000000&quot;&gt;img&lt;/font&gt;" style="rounded=1;whiteSpace=wrap;html=1;fillColor=#1ba1e2;fontColor=#ffffff;strokeColor=#006EAF;" parent="1" vertex="1">
          <mxGeometry x="279" y="670" width="80" height="40" as="geometry" />
        </mxCell>
        <mxCell id="tRwjkaypRiieognHgRcq-25" value="&lt;font color=&quot;#000000&quot;&gt;systems&lt;/font&gt;" style="rounded=1;whiteSpace=wrap;html=1;fillColor=#1ba1e2;fontColor=#ffffff;strokeColor=#006EAF;" parent="1" vertex="1">
          <mxGeometry x="279" y="720" width="80" height="40" as="geometry" />
        </mxCell>
        <mxCell id="tRwjkaypRiieognHgRcq-26" value="&lt;font color=&quot;#000000&quot;&gt;utils&lt;br&gt;&lt;/font&gt;" style="rounded=1;whiteSpace=wrap;html=1;fillColor=#1ba1e2;fontColor=#ffffff;strokeColor=#006EAF;" parent="1" vertex="1">
          <mxGeometry x="281" y="770" width="80" height="40" as="geometry" />
        </mxCell>
        <mxCell id="tRwjkaypRiieognHgRcq-32" value="&lt;font color=&quot;#000000&quot;&gt;node_modules&lt;/font&gt;" style="rounded=1;whiteSpace=wrap;html=1;fillColor=#1ba1e2;fontColor=#ffffff;strokeColor=#006EAF;" parent="1" vertex="1">
          <mxGeometry x="160" y="220" width="80" height="40" as="geometry" />
        </mxCell>
        <mxCell id="tRwjkaypRiieognHgRcq-35" value="package.json" style="text;html=1;strokeColor=none;fillColor=none;align=center;verticalAlign=middle;whiteSpace=wrap;rounded=0;" parent="1" vertex="1">
          <mxGeometry x="160" y="850" width="80" height="30" as="geometry" />
        </mxCell>
        <mxCell id="OaFxA5Hv5-MlWqyUZEpq-1" value="&lt;font color=&quot;#000000&quot;&gt;build&lt;/font&gt;" style="rounded=1;whiteSpace=wrap;html=1;fillColor=#1ba1e2;fontColor=#ffffff;strokeColor=#006EAF;" parent="1" vertex="1">
          <mxGeometry x="160" y="160" width="80" height="40" as="geometry" />
        </mxCell>
        <mxCell id="OaFxA5Hv5-MlWqyUZEpq-3" value="&lt;font color=&quot;#000000&quot;&gt;modules&lt;br&gt;&lt;/font&gt;" style="rounded=1;whiteSpace=wrap;html=1;fillColor=#1ba1e2;fontColor=#ffffff;strokeColor=#006EAF;" parent="1" vertex="1">
          <mxGeometry x="400" y="441" width="80" height="40" as="geometry" />
        </mxCell>
        <mxCell id="OaFxA5Hv5-MlWqyUZEpq-4" value="&lt;font color=&quot;#000000&quot;&gt;textfields&lt;br&gt;&lt;/font&gt;" style="rounded=1;whiteSpace=wrap;html=1;fillColor=#1ba1e2;fontColor=#ffffff;strokeColor=#006EAF;" parent="1" vertex="1">
          <mxGeometry x="400" y="490" width="80" height="40" as="geometry" />
        </mxCell>
        <mxCell id="OaFxA5Hv5-MlWqyUZEpq-5" value="&lt;font color=&quot;#000000&quot;&gt;plotly&lt;br&gt;&lt;/font&gt;" style="rounded=1;whiteSpace=wrap;html=1;fillColor=#1ba1e2;fontColor=#ffffff;strokeColor=#006EAF;" parent="1" vertex="1">
          <mxGeometry x="400" y="540" width="80" height="40" as="geometry" />
        </mxCell>
        <mxCell id="i9gKWZIL3JA77E3siz50-1" value="default_tuning.json" style="text;html=1;strokeColor=none;fillColor=none;align=center;verticalAlign=middle;whiteSpace=wrap;rounded=0;" vertex="1" parent="1">
          <mxGeometry x="400" y="585" width="111" height="30" as="geometry" />
        </mxCell>
      </root>
    </mxGraphModel>
  </diagram>
</mxfile>
